<?xml version="1.0" standalone="no"?>
<!DOCTYPE svg PUBLIC "-//W3C//DTD SVG 20010904//EN"
 "http://www.w3.org/TR/2001/REC-SVG-20010904/DTD/svg10.dtd">
<svg version="1.0" xmlns="http://www.w3.org/2000/svg"
 width="128.000000pt" height="128.000000pt" viewBox="0 0 128.000000 128.000000"
 preserveAspectRatio="xMidYMid meet">

<g transform="translate(0.000000,128.000000) scale(0.100000,-0.100000)"
fill="#000000" stroke="none">
<path d="M1001 1064 c-25 -31 -26 -52 -7 -99 19 -45 59 -57 89 -26 30 30 31
113 2 135 -30 23 -61 19 -84 -10z m51 -39 c0 -5 -5 -11 -11 -13 -6 -2 -11 4
-11 13 0 9 5 15 11 13 6 -2 11 -8 11 -13z"/>
<path d="M1074 645 c-20 -31 -12 -51 30 -75 24 -13 28 -13 36 0 6 8 9 33 8 55
-3 35 -6 40 -30 43 -20 2 -31 -4 -44 -23z"/>
<path d="M564 196 c-24 -38 -8 -50 70 -50 50 -1 70 3 83 17 16 16 16 18 0 34
-10 11 -38 18 -76 21 -55 4 -60 3 -77 -22z"/>
<path d="M186 194 c-9 -8 -16 -21 -16 -29 0 -24 35 -56 70 -64 71 -16 79 9 23
69 -42 44 -54 48 -77 24z"/>
</g>
</svg>
