<?xml version="1.0" standalone="no"?>
<!DOCTYPE svg PUBLIC "-//W3C//DTD SVG 20010904//EN"
 "http://www.w3.org/TR/2001/REC-SVG-20010904/DTD/svg10.dtd">
<svg version="1.0" xmlns="http://www.w3.org/2000/svg"
 width="128.000000pt" height="128.000000pt" viewBox="0 0 128.000000 128.000000"
 preserveAspectRatio="xMidYMid meet">

<g transform="translate(0.000000,128.000000) scale(0.100000,-0.100000)"
fill="#000000" stroke="none">
<path d="M1001 1064 c-25 -31 -26 -52 -7 -99 19 -45 59 -57 89 -26 30 30 31
113 2 135 -30 23 -61 19 -84 -10z m51 -39 c0 -5 -5 -11 -11 -13 -6 -2 -11 4
-11 13 0 9 5 15 11 13 6 -2 11 -8 11 -13z"/>
<path d="M1074 645 c-20 -31 -12 -51 30 -75 24 -13 28 -13 36 0 6 8 9 33 8 55
-3 35 -6 40 -30 43 -20 2 -31 -4 -44 -23z"/>
<path d="M760 373 c-32 -6 -40 -19 -40 -67 l0 -39 40 6 c62 8 92 32 88 70 -3
28 -7 32 -33 33 -16 1 -41 0 -55 -3z"/>
<path d="M472 237 c-45 -48 -13 -97 63 -97 46 0 65 14 65 46 0 26 -15 40 -55
50 -17 4 -35 11 -41 15 -7 5 -19 0 -32 -14z"/>
</g>
</svg>
